{
  "accessors": [
    {
      "bufferView": 2,
      "componentType": 5126,
      "count": 2018,
      "max": [
        13.512648582458496,
        0.10500741004943848,
        16.051008224487305
      ],
      "min": [
        -12.837385177612305,
        -1.0772737264633179,
        -10.299022674560547
      ],
      "type": "VEC3"
    },
    {
      "bufferView": 2,
      "byteOffset": 24216,
      "componentType": 5126,
      "count": 2018,
      "max": [
        1.0,
        1.0,
        1.0
      ],
      "min": [
        -1.0,
        -1.0,
        -1.0
      ],
      "type": "VEC3"
    },
    {
      "bufferView": 3,
      "componentType": 5126,
      "count": 2018,
      "max": [
        0.9999999403953552,
        0.9999551177024841,
        0.9716482758522034,
        1.0
      ],
      "min": [
        -4.466402248048951e-11,
        -0.9999892115592957,
        -0.4903174042701721,
        1.0
      ],
      "type": "VEC4"
    },
    {
      "bufferView": 1,
      "componentType": 5126,
      "count": 2018,
      "max": [
        0.9459497928619385,
        0.9622748494148254
      ],
      "min": [
        0.03746612370014191,
        0.08242291212081909
      ],
      "type": "VEC2"
    },
    {
      "bufferView": 0,
      "componentType": 5125,
      "count": 11520,
      "type": "SCALAR"
    },
    {
      "bufferView": 2,
      "byteOffset": 48432,
      "componentType": 5126,
      "count": 6344,
      "max": [
        10.702166557312012,
        7.570016384124756,
        13.116532325744629
      ],
      "min": [
        -11.346659660339355,
        -0.7556955814361572,
        -9.475418090820313
      ],
      "type": "VEC3"
    },
    {
      "bufferView": 2,
      "byteOffset": 124560,
      "componentType": 5126,
      "count": 6344,
      "max": [
        0.99992835521698,
        0.9987825155258179,
        0.9999852776527405
      ],
      "min": [
        -0.998576819896698,
        -0.9999924302101135,
        -0.9994447231292725
      ],
      "type": "VEC3"
    },
    {
      "bufferView": 1,
      "byteOffset": 16144,
      "componentType": 5126,
      "count": 6344,
      "max": [
        0.9755859375,
        0.8970479369163513
      ],
      "min": [
        0.0244140625,
        0.0244140625
      ],
      "type": "VEC2"
    },
    {
      "bufferView": 0,
      "byteOffset": 46080,
      "componentType": 5125,
      "count": 30576,
      "type": "SCALAR"
    },
    {
      "bufferView": 2,
      "byteOffset": 200688,
      "componentType": 5126,
      "count": 9492,
      "max": [
        7.645218849182129,
        1.4608734846115112,
        15.507475852966309
      ],
      "min": [
        -4.967687129974365,
        -0.6788210868835449,
        -9.416096687316895
      ],
      "type": "VEC3"
    },
    {
      "bufferView": 2,
      "byteOffset": 314592,
      "componentType": 5126,
      "count": 9492,
      "max": [
        0.9987788796424866,
        0.9999921917915344,
        0.999128520488739
      ],
      "min": [
        -0.999545693397522,
        -0.9999935626983643,
        -0.9996323585510254
      ],
      "type": "VEC3"
    },
    {
      "bufferView": 3,
      "byteOffset": 32288,
      "componentType": 5126,
      "count": 9492,
      "max": [
        0.999868631362915,
        0.9972141981124878,
        0.998548150062561,
        1.0
      ],
      "min": [
        -0.9995095729827881,
        -0.9991025328636169,
        -0.9999253749847412,
        1.0
      ],
      "type": "VEC4"
    },
    {
      "bufferView": 1,
      "byteOffset": 66896,
      "componentType": 5126,
      "count": 9492,
      "max": [
        0.9746386408805847,
        0.9755859375
      ],
      "min": [
        0.0244140625,
        0.0244140625
      ],
      "type": "VEC2"
    },
    {
      "bufferView": 0,
      "byteOffset": 168384,
      "componentType": 5125,
      "count": 49680,
      "type": "SCALAR"
    },
    {
      "bufferView": 2,
      "byteOffset": 428496,
      "componentType": 5126,
      "count": 62413,
      "max": [
        10.300402641296387,
        8.206113815307617,
        12.738973617553711
      ],
      "min": [
        -10.767548561096191,
        0.5164923667907715,
        -8.792299270629883
      ],
      "type": "VEC3"
    },
    {
      "bufferView": 2,
      "byteOffset": 1177452,
      "componentType": 5126,
      "count": 62413,
      "max": [
        0.9998955726623535,
        0.9945935010910034,
        0.9999857544898987
      ],
      "min": [
        -0.9999722838401794,
        -0.9783822298049927,
        -0.9999834299087524
      ],
      "type": "VEC3"
    },
    {
      "bufferView": 1,
      "byteOffset": 142832,
      "componentType": 5126,
      "count": 62413,
      "max": [
        0.954416811466217,
        0.9748170971870422
      ],
      "min": [
        0.3509538471698761,
        0.0244140625
      ],
      "type": "VEC2"
    },
    {
      "bufferView": 0,
      "byteOffset": 367104,
      "componentType": 5125,
      "count": 333840,
      "type": "SCALAR"
    },
    {
      "bufferView": 2,
      "byteOffset": 1926408,
      "componentType": 5126,
      "count": 2172,
      "max": [
        8.721046447753906,
        1.1875686645507813,
        5.090022563934326
      ],
      "min": [
        6.63534688949585,
        0.30366140604019165,
        3.059134006500244
      ],
      "type": "VEC3"
    },
    {
      "bufferView": 2,
      "byteOffset": 1952472,
      "componentType": 5126,
      "count": 2172,
      "max": [
        0.9990472197532654,
        0.9983219504356384,
        0.9977927803993225
      ],
      "min": [
        -0.9999096393585205,
        -0.9989330172538757,
        -0.9993546605110168
      ],
      "type": "VEC3"
    },
    {
      "bufferView": 3,
      "byteOffset": 184160,
      "componentType": 5126,
      "count": 2172,
      "max": [
        0.9968307018280029,
        0.9999030828475952,
        0.9997316598892212,
        1.0
      ],
      "min": [
        -0.9982643723487854,
        -0.9999176263809204,
        -0.9995312094688416,
        -1.0
      ],
      "type": "VEC4"
    },
    {
      "bufferView": 1,
      "byteOffset": 642136,
      "componentType": 5126,
      "count": 2172,
      "max": [
        0.9630303382873535,
        0.9755859375
      ],
      "min": [
        0.0244140625,
        0.0244140625
      ],
      "type": "VEC2"
    },
    {
      "bufferView": 0,
      "byteOffset": 1702464,
      "componentType": 5125,
      "count": 12276,
      "type": "SCALAR"
    },
    {
      "bufferView": 2,
      "byteOffset": 1978536,
      "componentType": 5126,
      "count": 18854,
      "max": [
        9.136777877807617,
        0.8348487615585327,
        5.463130950927734
      ],
      "min": [
        6.178568363189697,
        -0.012900471687316895,
        2.5355687141418457
      ],
      "type": "VEC3"
    },
    {
      "bufferView": 2,
      "byteOffset": 2204784,
      "componentType": 5126,
      "count": 18854,
      "max": [
        0.9995245337486267,
        0.9994086623191833,
        0.9999454021453857
      ],
      "min": [
        -0.9999386668205261,
        -0.9991280436515808,
        -0.999942421913147
      ],
      "type": "VEC3"
    },
    {
      "bufferView": 1,
      "byteOffset": 659512,
      "componentType": 5126,
      "count": 18854,
      "max": [
        0.9755859375,
        0.49378883838653564
      ],
      "min": [
        0.0244140625,
        0.0244140625
      ],
      "type": "VEC2"
    },
    {
      "bufferView": 0,
      "byteOffset": 1751568,
      "componentType": 5125,
      "count": 102960,
      "type": "SCALAR"
    },
    {
      "bufferView": 2,
      "byteOffset": 2431032,
      "componentType": 5126,
      "count": 6093,
      "max": [
        12.12949275970459,
        0.6726645827293396,
        13.264005661010742
      ],
      "min": [
        -10.383963584899902,
        0.007430613040924072,
        -8.480175018310547
      ],
      "type": "VEC3"
    },
    {
      "bufferView": 2,
      "byteOffset": 2504148,
      "componentType": 5126,
      "count": 6093,
      "max": [
        0.9950558543205261,
        0.30483177304267883,
        0.9787929654121399
      ],
      "min": [
        -0.9835418462753296,
        -0.811723530292511,
        -0.9920665621757507
      ],
      "type": "VEC3"
    },
    {
      "bufferView": 3,
      "byteOffset": 218912,
      "componentType": 5126,
      "count": 6093,
      "max": [
        0.9765987396240234,
        0.30331480503082275,
        0.9844546318054199,
        1.0
      ],
      "min": [
        -0.9920693039894104,
        -0.1966303586959839,
        -0.9950581192970276,
        1.0
      ],
      "type": "VEC4"
    },
    {
      "bufferView": 1,
      "byteOffset": 810344,
      "componentType": 5126,
      "count": 6093,
      "max": [
        0.5520350933074951,
        1.0
      ],
      "min": [
        0.4479649066925049,
        5.960464477539063e-08
      ],
      "type": "VEC2"
    },
    {
      "bufferView": 0,
      "byteOffset": 2163408,
      "componentType": 5125,
      "count": 21576,
      "type": "SCALAR"
    },
    {
      "bufferView": 2,
      "byteOffset": 2577264,
      "componentType": 5126,
      "count": 3765,
      "max": [
        12.220946311950684,
        1.0870550870895386,
        8.8401460647583
      ],
      "min": [
        4.132277488708496,
        0.11241663247346878,
        -0.38404035568237305
      ],
      "type": "VEC3"
    },
    {
      "bufferView": 2,
      "byteOffset": 2622444,
      "componentType": 5126,
      "count": 3765,
      "max": [
        0.9999009966850281,
        1.0,
        0.9992496371269226
      ],
      "min": [
        -0.9998820424079895,
        -1.0,
        -0.99998539686203
      ],
      "type": "VEC3"
    },
    {
      "bufferView": 3,
      "byteOffset": 316400,
      "componentType": 5126,
      "count": 3765,
      "max": [
        0.9989646077156067,
        0.9999971389770508,
        0.9991458058357239,
        1.0
      ],
      "min": [
        -0.9995656609535217,
        -1.0,
        -0.9997614622116089,
        1.0
      ],
      "type": "VEC4"
    },
    {
      "bufferView": 1,
      "byteOffset": 859088,
      "componentType": 5126,
      "count": 3765,
      "max": [
        0.9755859375,
        0.9744170308113098
      ],
      "min": [
        0.0244140625,
        0.0244140625
      ],
      "type": "VEC2"
    },
    {
      "bufferView": 0,
      "byteOffset": 2249712,
      "componentType": 5125,
      "count": 19440,
      "type": "SCALAR"
    }
  ],
  "asset": {
    "extras": {
      "author": "AndresX (https://sketchfab.com/Andres_X)",
      "license": "CC-BY-ND-4.0 (http://creativecommons.org/licenses/by-nd/4.0/)",
      "source": "https://sketchfab.com/3d-models/stylized-campfire-3b507b1eb4c142218a4b3baa043e3ed4",
      "title": "Stylized Campfire"
    },
    "generator": "Sketchfab-15.37.0",
    "version": "2.0"
  },
  "bufferViews": [
    {
      "buffer": 0,
      "byteLength": 2327472,
      "name": "floatBufferViews",
      "target": 34963
    },
    {
      "buffer": 0,
      "byteLength": 889208,
      "byteOffset": 2327472,
      "byteStride": 8,
      "name": "floatBufferViews",
      "target": 34962
    },
    {
      "buffer": 0,
      "byteLength": 2667624,
      "byteOffset": 3216680,
      "byteStride": 12,
      "name": "floatBufferViews",
      "target": 34962
    },
    {
      "buffer": 0,
      "byteLength": 376640,
      "byteOffset": 5884304,
      "byteStride": 16,
      "name": "floatBufferViews",
      "target": 34962
    }
  ],
  "buffers": [
    {
      "byteLength": 6260944,
      "uri": "scene.bin"
    }
  ],
  "extensionsUsed": [
    "KHR_materials_emissive_strength"
  ],
  "images": [
    {
      "uri": "textures/suelo_baseColor.png"
    },
    {
      "uri": "textures/suelo_normal.png"
    },
    {
      "uri": "textures/tronco_baseColor.png"
    },
    {
      "uri": "textures/tronco_metallicRoughness.png"
    },
    {
      "uri": "textures/Default_Material_baseColor.png"
    },
    {
      "uri": "textures/Default_Material_metallicRoughness.png"
    },
    {
      "uri": "textures/Default_Material_normal.png"
    },
    {
      "uri": "textures/hojas_baseColor.png"
    },
    {
      "uri": "textures/hojas_metallicRoughness.png"
    },
    {
      "uri": "textures/palos_campfire_baseColor.png"
    },
    {
      "uri": "textures/palos_campfire_metallicRoughness.png"
    },
    {
      "uri": "textures/palos_campfire_emissive.png"
    },
    {
      "uri": "textures/palos_campfire_normal.png"
    },
    {
      "uri": "textures/standardSurface1_baseColor.png"
    },
    {
      "uri": "textures/standardSurface1_metallicRoughness.png"
    },
    {
      "uri": "textures/grass1_baseColor.png"
    },
    {
      "uri": "textures/grass1_normal.png"
    },
    {
      "uri": "textures/tronco_silla_baseColor.png"
    },
    {
      "uri": "textures/tronco_silla_metallicRoughness.png"
    },
    {
      "uri": "textures/tronco_silla_normal.png"
    }
  ],
  "materials": [
    {
      "doubleSided": true,
      "name": "suelo",
      "normalTexture": {
        "index": 1
      },
      "pbrMetallicRoughness": {
        "baseColorFactor": [
          0.5165730028891516,
          0.5165730028891516,
          0.5165730028891516,
          1.0
        ],
        "baseColorTexture": {
          "index": 0
        },
        "metallicFactor": 0.0
      }
    },
    {
      "doubleSided": true,
      "name": "tronco",
      "occlusionTexture": {
        "index": 3
      },
      "pbrMetallicRoughness": {
        "baseColorTexture": {
          "index": 2
        },
        "metallicFactor": 0.0,
        "metallicRoughnessTexture": {
          "index": 3
        },
        "roughnessFactor": 0.6
      }
    },
    {
      "doubleSided": true,
      "name": "Default_Material",
      "normalTexture": {
        "index": 6
      },
      "occlusionTexture": {
        "index": 5
      },
      "pbrMetallicRoughness": {
        "baseColorTexture": {
          "index": 4
        },
        "metallicFactor": 0.0,
        "metallicRoughnessTexture": {
          "index": 5
        }
      }
    },
    {
      "doubleSided": true,
      "name": "hojas",
      "occlusionTexture": {
        "index": 8
      },
      "pbrMetallicRoughness": {
        "baseColorTexture": {
          "index": 7
        },
        "metallicFactor": 0.0,
        "metallicRoughnessTexture": {
          "index": 8
        },
        "roughnessFactor": 0.6
      }
    },
    {
      "doubleSided": true,
      "emissiveFactor": [
        1.0,
        1.0,
        1.0
      ],
      "emissiveTexture": {
        "index": 11
      },
      "extensions": {
        "KHR_materials_emissive_strength": {
          "emissiveStrength": 10.0
        }
      },
      "name": "palos_campfire",
      "normalTexture": {
        "index": 12
      },
      "occlusionTexture": {
        "index": 10
      },
      "pbrMetallicRoughness": {
        "baseColorTexture": {
          "index": 9
        },
        "metallicRoughnessTexture": {
          "index": 10
        },
        "roughnessFactor": 0.6
      }
    },
    {
      "doubleSided": true,
      "name": "standardSurface1",
      "occlusionTexture": {
        "index": 14
      },
      "pbrMetallicRoughness": {
        "baseColorTexture": {
          "index": 13
        },
        "metallicFactor": 0.0,
        "metallicRoughnessTexture": {
          "index": 14
        },
        "roughnessFactor": 0.6
      }
    },
    {
      "doubleSided": true,
      "name": "grass1",
      "normalTexture": {
        "index": 16
      },
      "pbrMetallicRoughness": {
        "baseColorTexture": {
          "index": 15
        },
        "metallicFactor": 0.0,
        "roughnessFactor": 0.6
      }
    },
    {
      "doubleSided": true,
      "name": "tronco_silla",
      "normalTexture": {
        "index": 19
      },
      "occlusionTexture": {
        "index": 18
      },
      "pbrMetallicRoughness": {
        "baseColorTexture": {
          "index": 17
        },
        "metallicFactor": 0.0,
        "metallicRoughnessTexture": {
          "index": 18
        }
      }
    }
  ],
  "meshes": [
    {
      "name": "suelo1_suelo_0",
      "primitives": [
        {
          "attributes": {
            "NORMAL": 1,
            "POSITION": 0,
            "TANGENT": 2,
            "TEXCOORD_0": 3
          },
          "indices": 4,
          "material": 0,
          "mode": 4
        }
      ]
    },
    {
      "name": "troncos_arboles_tronco_0",
      "primitives": [
        {
          "attributes": {
            "NORMAL": 6,
            "POSITION": 5,
            "TEXCOORD_0": 7
          },
          "indices": 8,
          "material": 1,
          "mode": 4
        }
      ]
    },
    {
      "name": "troncoscortados_Default_Material_0",
      "primitives": [
        {
          "attributes": {
            "NORMAL": 10,
            "POSITION": 9,
            "TANGENT": 11,
            "TEXCOORD_0": 12
          },
          "indices": 13,
          "material": 2,
          "mode": 4
        }
      ]
    },
    {
      "name": "hojas_arboles_hojas_0",
      "primitives": [
        {
          "attributes": {
            "NORMAL": 15,
            "POSITION": 14,
            "TEXCOORD_0": 16
          },
          "indices": 17,
          "material": 3,
          "mode": 4
        }
      ]
    },
    {
      "name": "palitos_palos_campfire_0",
      "primitives": [
        {
          "attributes": {
            "NORMAL": 19,
            "POSITION": 18,
            "TANGENT": 20,
            "TEXCOORD_0": 21
          },
          "indices": 22,
          "material": 4,
          "mode": 4
        }
      ]
    },
    {
      "name": "piedras_standardSurface1_0",
      "primitives": [
        {
          "attributes": {
            "NORMAL": 24,
            "POSITION": 23,
            "TEXCOORD_0": 25
          },
          "indices": 26,
          "material": 5,
          "mode": 4
        }
      ]
    },
    {
      "name": "grass2_grass1_0",
      "primitives": [
        {
          "attributes": {
            "NORMAL": 28,
            "POSITION": 27,
            "TANGENT": 29,
            "TEXCOORD_0": 30
          },
          "indices": 31,
          "material": 6,
          "mode": 4
        }
      ]
    },
    {
      "name": "troncos_silla_tronco_silla_0",
      "primitives": [
        {
          "attributes": {
            "NORMAL": 33,
            "POSITION": 32,
            "TANGENT": 34,
            "TEXCOORD_0": 35
          },
          "indices": 36,
          "material": 7,
          "mode": 4
        }
      ]
    }
  ],
  "nodes": [
    {
      "children": [
        1
      ],
      "matrix": [
        1.0,
        0.0,
        0.0,
        0.0,
        0.0,
        2.220446049250313e-16,
        -1.0,
        0.0,
        0.0,
        1.0,
        2.220446049250313e-16,
        0.0,
        0.0,
        0.0,
        0.0,
        1.0
      ],
      "name": "Sketchfab_model"
    },
    {
      "children": [
        2
      ],
      "matrix": [
        0.009999999776482582,
        0.0,
        0.0,
        0.0,
        0.0,
        0.0,
        0.009999999776482582,
        0.0,
        0.0,
        -0.009999999776482582,
        0.0,
        0.0,
        0.0,
        0.0,
        0.0,
        1.0
      ],
      "name": "47f08093e3a944d5a5c5ccade7296609.fbx"
    },
    {
      "children": [
        3,
        5,
        7,
        9,
        11,
        13,
        15,
        17
      ],
      "name": "RootNode"
    },
    {
      "children": [
        4
      ],
      "name": "suelo1"
    },
    {
      "mesh": 0,
      "name": "suelo1_suelo_0"
    },
    {
      "children": [
        6
      ],
      "name": "troncos_arboles"
    },
    {
      "mesh": 1,
      "name": "troncos_arboles_tronco_0"
    },
    {
      "children": [
        8
      ],
      "name": "troncoscortados"
    },
    {
      "mesh": 2,
      "name": "troncoscortados_Default_Material_0"
    },
    {
      "children": [
        10
      ],
      "name": "hojas_arboles"
    },
    {
      "mesh": 3,
      "name": "hojas_arboles_hojas_0"
    },
    {
      "children": [
        12
      ],
      "name": "palitos"
    },
    {
      "mesh": 4,
      "name": "palitos_palos_campfire_0"
    },
    {
      "children": [
        14
      ],
      "name": "piedras"
    },
    {
      "mesh": 5,
      "name": "piedras_standardSurface1_0"
    },
    {
      "children": [
        16
      ],
      "name": "grass2"
    },
    {
      "mesh": 6,
      "name": "grass2_grass1_0"
    },
    {
      "children": [
        18
      ],
      "name": "troncos_silla"
    },
    {
      "mesh": 7,
      "name": "troncos_silla_tronco_silla_0"
    }
  ],
  "samplers": [
    {
      "magFilter": 9729,
      "minFilter": 9987,
      "wrapS": 10497,
      "wrapT": 10497
    }
  ],
  "scene": 0,
  "scenes": [
    {
      "name": "Sketchfab_Scene",
      "nodes": [
        0
      ]
    }
  ],
  "textures": [
    {
      "sampler": 0,
      "source": 0
    },
    {
      "sampler": 0,
      "source": 1
    },
    {
      "sampler": 0,
      "source": 2
    },
    {
      "sampler": 0,
      "source": 3
    },
    {
      "sampler": 0,
      "source": 4
    },
    {
      "sampler": 0,
      "source": 5
    },
    {
      "sampler": 0,
      "source": 6
    },
    {
      "sampler": 0,
      "source": 7
    },
    {
      "sampler": 0,
      "source": 8
    },
    {
      "sampler": 0,
      "source": 9
    },
    {
      "sampler": 0,
      "source": 10
    },
    {
      "sampler": 0,
      "source": 11
    },
    {
      "sampler": 0,
      "source": 12
    },
    {
      "sampler": 0,
      "source": 13
    },
    {
      "sampler": 0,
      "source": 14
    },
    {
      "sampler": 0,
      "source": 15
    },
    {
      "sampler": 0,
      "source": 16
    },
    {
      "sampler": 0,
      "source": 17
    },
    {
      "sampler": 0,
      "source": 18
    },
    {
      "sampler": 0,
      "source": 19
    }
  ]
}
